<?xml version="1.0" encoding="iso-8859-1"?>
<!-- Generator: Adobe Illustrator 19.0.0, SVG Export Plug-In . SVG Version: 6.00 Build 0)  -->
<svg version="1.1" id="Capa_1" xmlns="http://www.w3.org/2000/svg" xmlns:xlink="http://www.w3.org/1999/xlink" x="0px" y="0px"
	 viewBox="0 0 512 512" style="enable-background:new 0 0 512 512;" xml:space="preserve">
<g>
	<g>
		<path d="M416.667,0H95.334C42.767,0,0,42.767,0,95.333v321.334C0,469.233,42.767,512,95.334,512h321.333
			C469.233,512,512,469.233,512,416.667V95.333C512,42.767,469.233,0,416.667,0z M482,416.667C482,452.691,452.691,482,416.667,482
			H95.334C59.309,482,30,452.691,30,416.667V95.333C30,59.309,59.309,30,95.334,30h321.333C452.691,30,482,59.309,482,95.333
			V416.667z"/>
	</g>
</g>
<g>
	<g>
		<path d="M256,144.6c-61.427,0-111.4,49.974-111.4,111.4S194.573,367.4,256,367.4S367.4,317.427,367.4,256S317.427,144.6,256,144.6
			z M256,337.4c-44.885,0-81.4-36.516-81.4-81.4c0-44.884,36.516-81.4,81.4-81.4c44.884,0,81.4,36.516,81.4,81.4
			C337.4,300.884,300.885,337.4,256,337.4z"/>
	</g>
</g>
<g>
	<g>
		<path d="M411.21,100.79c-2.79-2.79-6.66-4.391-10.61-4.391c-3.95,0-7.819,1.601-10.609,4.391c-2.79,2.79-4.391,6.66-4.391,10.609
			c0,3.95,1.601,7.82,4.391,10.61c2.8,2.79,6.659,4.39,10.609,4.39s7.811-1.6,10.61-4.39c2.79-2.8,4.39-6.66,4.39-10.61
			C415.6,107.45,414,103.589,411.21,100.79z"/>
	</g>
</g>
<g>
</g>
<g>
</g>
<g>
</g>
<g>
</g>
<g>
</g>
<g>
</g>
<g>
</g>
<g>
</g>
<g>
</g>
<g>
</g>
<g>
</g>
<g>
</g>
<g>
</g>
<g>
</g>
<g>
</g>
</svg>
